{"asset":{"version":"2.0","generator":"Blockbench 4.10.4 glTF exporter"},"scenes":[{"nodes":[10],"name":"blockbench_export"}],"scene":0,"nodes":[{"translation":[-0.625,0,0],"name":"hat"},{"name":"head","children":[0]},{"translation":[0.0625,-0.4375,0.0625],"name":"rightItem"},{"translation":[0.3125,-0.125,0],"name":"rightArm","children":[2]},{"translation":[-0.0625,-0.4375,0.0625],"name":"leftItem"},{"translation":[-0.3125,-0.125,0],"name":"leftArm","children":[4]},{"translation":[0.11875,-0.75,0],"name":"rightLeg"},{"translation":[-0.11875,-0.75,0],"name":"leftLeg"},{"translation":[0,0.75,0],"name":"body","children":[1,3,5,6,7]},{"name":"waist","children":[8]},{"translation":[0,0.75,0],"name":"waist","mesh":0,"children":[9],"skin":0}],"bufferViews":[{"buffer":0,"byteOffset":0,"byteLength":2016,"target":34962,"byteStride":12},{"buffer":0,"byteOffset":2016,"byteLength":2016,"target":34962,"byteStride":12},{"buffer":0,"byteOffset":4032,"byteLength":1344,"target":34962,"byteStride":8},{"buffer":0,"byteOffset":5376,"byteLength":1344,"target":34962,"byteStride":8},{"buffer":0,"byteOffset":6720,"byteLength":2688,"target":34962,"byteStride":16},{"buffer":0,"byteOffset":9408,"byteLength":504,"target":34963},{"buffer":0,"byteOffset":9912,"byteLength":640}],"buffers":[{"byteLength":10552,"uri":"data:application/octet-stream;base64,"}],"accessors":[{"bufferView":0,"componentType":5126,"count":168,"max":[0.5,1.28125,0.28125],"min":[-0.5,-0.75,-0.28125],"type":"VEC3"},{"bufferView":1,"componentType":5126,"count":168,"max":[1,1,1],"min":[-1,-1,-1],"type":"VEC3"},{"bufferView":2,"componentType":5126,"count":168,"max":[0.999755859375,0.99951171875],"min":[0.000244140625,0.00048828125],"type":"VEC2"},{"bufferView":3,"componentType":5123,"count":168,"max":[0,9,0,0],"min":[0,1,0,0],"type":"VEC4"},{"bufferView":4,"componentType":5126,"count":168,"max":[0,1,0,0],"min":[0,1,0,0],"type":"VEC4"},{"bufferView":5,"componentType":5123,"count":252,"max":[167],"min":[0],"type":"SCALAR"},{"bufferView":6,"componentType":5126,"count":10,"max":[1,0,0,0,0,1,0,0,0,0,1,0,0.625,0,0,1],"min":[1,0,0,0,0,1,0,0,0,0,1,0,-0.375,-0.75,-0.0625,1],"type":"MAT4"}],"materials":[{"pbrMetallicRoughness":{"metallicFactor":0,"roughnessFactor":1,"baseColorTexture":{"index":0}},"alphaMode":"MASK","alphaCutoff":0.05,"doubleSided":true}],"textures":[{"sampler":0,"source":0}],"samplers":[{"magFilter":9728,"minFilter":9728,"wrapS":33071,"wrapT":33071}],"images":[{"mimeType":"image/png","uri":"data:image/png;base64,"}],"meshes":[{"primitives":[{"mode":4,"attributes":{"POSITION":0,"NORMAL":1,"TEXCOORD_0":2,"JOINTS_0":3,"WEIGHTS_0":4},"indices":5,"material":0}]}],"skins":[{"inverseBindMatrices":6,"joints":[9,8,1,0,3,2,5,4,6,7],"skeleton":9}]}