{"asset":{"version":"2.0","generator":"Blockbench 4.10.4 glTF exporter"},"scenes":[{"nodes":[11],"name":"blockbench_export"}],"scene":0,"nodes":[{"rotation":[0.7016531639384929,0.0640046634563305,0.11551522958426191,0.7001731730972272],"translation":[0,0.8125000000000001,-0.1875],"name":"head"},{"rotation":[-0.3420201433256687,0,0,0.9396926207859084],"translation":[-0.0625,0.07312624999999995,0.310950625],"name":"wast","children":[0]},{"translation":[0,-0.31249999999999994,0.125],"name":"leg12"},{"translation":[0.25,0.010626249999999948,0.310950625],"name":"leg1","children":[2]},{"translation":[0.10968125000000001,-0.41952874999999995,0.205995625],"name":"leg22"},{"rotation":[0.021395718135586262,-0.004255872946137346,-0.1950438958025166,0.9805518800660707],"translation":[-0.375,0.13562624999999995,0.248450625],"name":"leg2","children":[4]},{"translation":[0.1599975,-0.5257106250000001,0.21374125000000002],"name":"leg32"},{"rotation":[0.18298593675074373,-0.9728434961480793,-0.1249699822205448,0.06688933022262777],"translation":[-0.375,0.32312625000000006,-0.06404937500000002],"name":"leg3","children":[6]},{"translation":[-0.0024956250000000013,-0.6169681250000001,0.276360625],"name":"leg5"},{"rotation":[0.05127808956148131,-0.972252365275481,-0.18926449840741483,0.1275729022549339],"translation":[0.375,0.38562625000000006,0.06095062500000001],"name":"leg4","children":[8]},{"rotation":[-0.10886687485196457,0,0,0.9940563382223196],"name":"body","children":[1,3,5,7,9]},{"rotation":[-0.10886687485196457,0,0,0.9940563382223196],"translation":[0.0625,0.6875,-0.25],"name":"body","mesh":0,"children":[10],"skin":0}],"bufferViews":[{"buffer":0,"byteOffset":0,"byteLength":3168,"target":34962,"byteStride":12},{"buffer":0,"byteOffset":3168,"byteLength":3168,"target":34962,"byteStride":12},{"buffer":0,"byteOffset":6336,"byteLength":2112,"target":34962,"byteStride":8},{"buffer":0,"byteOffset":8448,"byteLength":2112,"target":34962,"byteStride":8},{"buffer":0,"byteOffset":10560,"byteLength":4224,"target":34962,"byteStride":16},{"buffer":0,"byteOffset":14784,"byteLength":792,"target":34963},{"buffer":0,"byteOffset":15576,"byteLength":704},{"buffer":0,"byteOffset":16280,"byteLength":28},{"buffer":0,"byteOffset":16308,"byteLength":112},{"buffer":0,"byteOffset":16420,"byteLength":28},{"buffer":0,"byteOffset":16448,"byteLength":84},{"buffer":0,"byteOffset":16532,"byteLength":4},{"buffer":0,"byteOffset":16536,"byteLength":16},{"buffer":0,"byteOffset":16552,"byteLength":24},{"buffer":0,"byteOffset":16576,"byteLength":96},{"buffer":0,"byteOffset":16672,"byteLength":8},{"buffer":0,"byteOffset":16680,"byteLength":32},{"buffer":0,"byteOffset":16712,"byteLength":24},{"buffer":0,"byteOffset":16736,"byteLength":96},{"buffer":0,"byteOffset":16832,"byteLength":8},{"buffer":0,"byteOffset":16840,"byteLength":32},{"buffer":0,"byteOffset":16872,"byteLength":24},{"buffer":0,"byteOffset":16896,"byteLength":96},{"buffer":0,"byteOffset":16992,"byteLength":28},{"buffer":0,"byteOffset":17020,"byteLength":112},{"buffer":0,"byteOffset":17132,"byteLength":8},{"buffer":0,"byteOffset":17140,"byteLength":24},{"buffer":0,"byteOffset":17164,"byteLength":16},{"buffer":0,"byteOffset":17180,"byteLength":64},{"buffer":0,"byteOffset":17244,"byteLength":16},{"buffer":0,"byteOffset":17260,"byteLength":48},{"buffer":0,"byteOffset":17308,"byteLength":16},{"buffer":0,"byteOffset":17324,"byteLength":64}],"buffers":[{"byteLength":17388,"uri":"data:application/octet-stream;base64,"}],"accessors":[{"bufferView":0,"componentType":5126,"count":264,"max":[0.6120863556861877,0.7714229226112366,0.5828101634979248],"min":[-0.6328660845756531,-0.8320902585983276,-0.6837263703346252],"type":"VEC3"},{"bufferView":1,"componentType":5126,"count":264,"max":[1,0.9949095249176025,0.9986262321472168],"min":[-1,-0.9949095249176025,-0.9986262321472168],"type":"VEC3"},{"bufferView":2,"componentType":5126,"count":264,"max":[0.921875,0.921875],"min":[0,0],"type":"VEC2"},{"bufferView":3,"componentType":5123,"count":264,"max":[0,10,0,0],"min":[0,1,0,0],"type":"VEC4"},{"bufferView":4,"componentType":5126,"count":264,"max":[0,1,0,0],"min":[0,1,0,0],"type":"VEC4"},{"bufferView":5,"componentType":5123,"count":396,"max":[263],"min":[0],"type":"SCALAR"},{"bufferView":6,"componentType":5126,"count":11,"max":[1,0.38231921195983887,0.2517319619655609,0,0.21064981818199158,0.9837049841880798,0.7933533191680908,0,0.25526899099349976,0.616127073764801,0.9840890765190125,0,0.40645357966423035,0.4268781244754791,0.6621251106262207,1],"min":[-0.9621914029121399,-0.3393150269985199,-0.267476350069046,0,-0.37361231446266174,0.6087614297866821,-0.583450973033905,0,-0.15547171235084534,-0.7933533191680908,-0.9843946099281311,0,-0.3806767165660858,-0.4014958441257477,-0.4550038278102875,1],"type":"MAT4"},{"bufferView":7,"componentType":5126,"count":7,"max":[1.166700005531311],"min":[0],"type":"SCALAR"},{"bufferView":8,"componentType":5126,"count":7,"max":[0.03275283798575401,0.04190043359994888,0.050595782697200775,0.9976211786270142],"min":[-0.14099253714084625,0,0,0.9881449937820435],"type":"VEC4"},{"bufferView":9,"componentType":5126,"count":7,"max":[1.166700005531311],"min":[0],"type":"SCALAR"},{"bufferView":10,"componentType":5126,"count":7,"max":[0.0625,0.875,-0.125],"min":[0.0625,0.6875,-0.25],"type":"VEC3"},{"bufferView":11,"componentType":5126,"count":1,"max":[0],"min":[0],"type":"SCALAR"},{"bufferView":12,"componentType":5126,"count":1,"max":[-0.3420201539993286,0,0,0.9396926164627075],"min":[-0.3420201539993286,0,0,0.9396926164627075],"type":"VEC4"},{"bufferView":13,"componentType":5126,"count":6,"max":[1.166700005531311],"min":[0],"type":"SCALAR"},{"bufferView":14,"componentType":5126,"count":6,"max":[0,0.004798786714673042,0,1],"min":[-0.6860009431838989,-0.05871599167585373,-0.13082054257392883,0.7157273888587952],"type":"VEC4"},{"bufferView":15,"componentType":5126,"count":2,"max":[0.25],"min":[0],"type":"SCALAR"},{"bufferView":16,"componentType":5126,"count":2,"max":[0.3420201539993286,0,0,1],"min":[0,0,0,0.9396926164627075],"type":"VEC4"},{"bufferView":17,"componentType":5126,"count":6,"max":[1.166700005531311],"min":[0],"type":"SCALAR"},{"bufferView":18,"componentType":5126,"count":6,"max":[0.021395718678832054,0.13180111348628998,-0.14383567869663239,0.9805518984794617],"min":[-0.6626089215278625,-0.004255873151123524,-0.1950438916683197,0.7231107354164124],"type":"VEC4"},{"bufferView":19,"componentType":5126,"count":2,"max":[0.25],"min":[0],"type":"SCALAR"},{"bufferView":20,"componentType":5126,"count":2,"max":[0.36243805289268494,0,0,1],"min":[0,0,0,0.9320078492164612],"type":"VEC4"},{"bufferView":21,"componentType":5126,"count":6,"max":[1.166700005531311],"min":[0],"type":"SCALAR"},{"bufferView":22,"componentType":5126,"count":6,"max":[0.18811941146850586,-0.725226879119873,-0.039705537259578705,0.15974895656108856],"min":[0.11152715981006622,-0.9800333976745605,-0.6603695154190063,0.05068651959300041],"type":"VEC4"},{"bufferView":23,"componentType":5126,"count":7,"max":[1.166700005531311],"min":[0],"type":"SCALAR"},{"bufferView":24,"componentType":5126,"count":7,"max":[0.14684197306632996,-0.8538855910301208,-0.014707253314554691,0.12459546327590942],"min":[0.08245918154716492,-0.9931912422180176,-0.5037636160850525,0.037156879901885986],"type":"VEC4"},{"bufferView":25,"componentType":5126,"count":2,"max":[1],"min":[0],"type":"SCALAR"},{"bufferView":26,"componentType":5126,"count":2,"max":[0.375,0.38562625646591187,0.0609506256878376],"min":[0.375,0.32312625646591187,0.0609506256878376],"type":"VEC3"},{"bufferView":27,"componentType":5126,"count":4,"max":[0.791700005531311],"min":[0],"type":"SCALAR"},{"bufferView":28,"componentType":5126,"count":4,"max":[-0.02181488461792469,0,0,0.9997619986534119],"min":[-0.13052618503570557,0,0,0.9914448857307434],"type":"VEC4"},{"bufferView":29,"componentType":5126,"count":4,"max":[0.791700005531311],"min":[0],"type":"SCALAR"},{"bufferView":30,"componentType":5126,"count":4,"max":[0.0625,0.6875,-0.1875],"min":[0.0625,0.6875,-0.25],"type":"VEC3"},{"bufferView":31,"componentType":5126,"count":4,"max":[0.791700005531311],"min":[0],"type":"SCALAR"},{"bufferView":32,"componentType":5126,"count":4,"max":[0.44250500202178955,-0.6972624063491821,-0.18926449120044708,0.2190881371498108],"min":[-0.12704966962337494,-0.972252368927002,-0.5351405739784241,-0.17790725827217102],"type":"VEC4"}],"materials":[{"pbrMetallicRoughness":{"metallicFactor":0,"roughnessFactor":1,"baseColorTexture":{"index":0}},"alphaMode":"MASK","alphaCutoff":0.05,"doubleSided":true}],"textures":[{"sampler":0,"source":0}],"samplers":[{"magFilter":9728,"minFilter":9728,"wrapS":33071,"wrapT":33071}],"images":[{"mimeType":"image/png","uri":"data:image/png;base64,"}],"meshes":[{"primitives":[{"mode":4,"attributes":{"POSITION":0,"NORMAL":1,"TEXCOORD_0":2,"JOINTS_0":3,"WEIGHTS_0":4},"indices":5,"material":0}]}],"skins":[{"inverseBindMatrices":6,"joints":[10,1,0,3,2,5,4,7,6,9,8],"skeleton":10}],"animations":[{"name":"animation.sandman.walk","samplers":[{"input":7,"output":8,"interpolation":"LINEAR"},{"input":9,"output":10,"interpolation":"LINEAR"},{"input":11,"output":12,"interpolation":"LINEAR"},{"input":13,"output":14,"interpolation":"LINEAR"},{"input":15,"output":16,"interpolation":"LINEAR"},{"input":17,"output":18,"interpolation":"LINEAR"},{"input":19,"output":20,"interpolation":"LINEAR"},{"input":21,"output":22,"interpolation":"LINEAR"},{"input":23,"output":24,"interpolation":"LINEAR"},{"input":25,"output":26,"interpolation":"LINEAR"}],"channels":[{"sampler":0,"target":{"node":10,"path":"rotation"}},{"sampler":1,"target":{"node":10,"path":"translation"}},{"sampler":2,"target":{"node":1,"path":"rotation"}},{"sampler":3,"target":{"node":3,"path":"rotation"}},{"sampler":4,"target":{"node":2,"path":"rotation"}},{"sampler":5,"target":{"node":5,"path":"rotation"}},{"sampler":6,"target":{"node":4,"path":"rotation"}},{"sampler":7,"target":{"node":7,"path":"rotation"}},{"sampler":8,"target":{"node":9,"path":"rotation"}},{"sampler":9,"target":{"node":9,"path":"translation"}}]},{"name":"animation.sandman.biting","samplers":[{"input":27,"output":28,"interpolation":"LINEAR"},{"input":29,"output":30,"interpolation":"LINEAR"},{"input":31,"output":32,"interpolation":"LINEAR"}],"channels":[{"sampler":0,"target":{"node":10,"path":"rotation"}},{"sampler":1,"target":{"node":10,"path":"translation"}},{"sampler":2,"target":{"node":9,"path":"rotation"}}]}]}