{"asset":{"version":"2.0","generator":"Blockbench 4.10.4 glTF exporter"},"scenes":[{"nodes":[11],"name":"blockbench_export"}],"scene":0,"nodes":[{"rotation":[0,-1,0,6.123233995736766e-17],"translation":[-0.125,1.625,0.125],"name":"head"},{"rotation":[0,0,0.3007057995042731,0.9537169507482269],"translation":[0.002737946565225191,-0.3104229188410109,0],"name":"leg11"},{"rotation":[0,0,-0.3214394653031616,0.9469301294951057],"translation":[0.0625,0.875,-0.25],"name":"leg1","children":[1]},{"rotation":[0,0,0.3007057995042731,0.9537169507482269],"translation":[0.07878816639970426,-0.3963334893364314,0],"name":"leg3"},{"rotation":[0,0,-0.3214394653031616,0.9469301294951057],"translation":[0,0.9375,0.125],"name":"leg2","children":[3]},{"rotation":[-0.6730193829094221,-0.7344717739534476,0.058881566337788016,0.06425795390070184],"translation":[0.00736583329815187,-0.46767456577497657,-0.0625],"name":"sword"},{"rotation":[0,0,0.3007057995042731,0.9537169507482269],"translation":[0.10328553587827022,-0.36000750260921377,0],"name":"leg5","children":[5]},{"rotation":[-0.24951902330832584,0.9621366748107031,-0.023588997093657534,0.1071299921010825],"translation":[-0.125,1.5625,0.3125],"name":"leg4","children":[6]},{"rotation":[0,0,0.3007057995042731,0.9537169507482269],"translation":[0.04078553587827022,-0.48500750260921377,0],"name":"leg7"},{"rotation":[0.2235979083131818,-0.9647465542417119,0.0033436469699657384,0.1387691662497619],"translation":[-0.125,1.5625,-0.5625],"name":"leg6","children":[8]},{"rotation":[0,-0.6915130557822694,0,0.7223639620597556],"name":"body","children":[0,2,4,7,9]},{"rotation":[0,-0.6915130557822694,0,0.7223639620597556],"name":"body","mesh":0,"children":[10],"skin":0}],"bufferViews":[{"buffer":0,"byteOffset":0,"byteLength":4608,"target":34962,"byteStride":12},{"buffer":0,"byteOffset":4608,"byteLength":4608,"target":34962,"byteStride":12},{"buffer":0,"byteOffset":9216,"byteLength":3072,"target":34962,"byteStride":8},{"buffer":0,"byteOffset":12288,"byteLength":3072,"target":34962,"byteStride":8},{"buffer":0,"byteOffset":15360,"byteLength":6144,"target":34962,"byteStride":16},{"buffer":0,"byteOffset":21504,"byteLength":1152,"target":34963},{"buffer":0,"byteOffset":22656,"byteLength":704},{"buffer":0,"byteOffset":23360,"byteLength":16},{"buffer":0,"byteOffset":23376,"byteLength":64},{"buffer":0,"byteOffset":23440,"byteLength":24},{"buffer":0,"byteOffset":23464,"byteLength":96},{"buffer":0,"byteOffset":23560,"byteLength":24},{"buffer":0,"byteOffset":23584,"byteLength":96},{"buffer":0,"byteOffset":23680,"byteLength":4},{"buffer":0,"byteOffset":23684,"byteLength":16},{"buffer":0,"byteOffset":23700,"byteLength":24},{"buffer":0,"byteOffset":23724,"byteLength":96},{"buffer":0,"byteOffset":23820,"byteLength":12},{"buffer":0,"byteOffset":23832,"byteLength":48},{"buffer":0,"byteOffset":23880,"byteLength":56},{"buffer":0,"byteOffset":23936,"byteLength":224},{"buffer":0,"byteOffset":24160,"byteLength":32},{"buffer":0,"byteOffset":24192,"byteLength":128},{"buffer":0,"byteOffset":24320,"byteLength":12},{"buffer":0,"byteOffset":24332,"byteLength":48},{"buffer":0,"byteOffset":24380,"byteLength":32},{"buffer":0,"byteOffset":24412,"byteLength":128},{"buffer":0,"byteOffset":24540,"byteLength":20},{"buffer":0,"byteOffset":24560,"byteLength":80},{"buffer":0,"byteOffset":24640,"byteLength":28},{"buffer":0,"byteOffset":24668,"byteLength":112},{"buffer":0,"byteOffset":24780,"byteLength":20},{"buffer":0,"byteOffset":24800,"byteLength":80},{"buffer":0,"byteOffset":24880,"byteLength":24},{"buffer":0,"byteOffset":24904,"byteLength":96},{"buffer":0,"byteOffset":25000,"byteLength":8},{"buffer":0,"byteOffset":25008,"byteLength":32},{"buffer":0,"byteOffset":25040,"byteLength":12},{"buffer":0,"byteOffset":25052,"byteLength":48},{"buffer":0,"byteOffset":25100,"byteLength":8},{"buffer":0,"byteOffset":25108,"byteLength":24},{"buffer":0,"byteOffset":25132,"byteLength":20},{"buffer":0,"byteOffset":25152,"byteLength":80},{"buffer":0,"byteOffset":25232,"byteLength":8},{"buffer":0,"byteOffset":25240,"byteLength":32},{"buffer":0,"byteOffset":25272,"byteLength":12},{"buffer":0,"byteOffset":25284,"byteLength":48},{"buffer":0,"byteOffset":25332,"byteLength":8},{"buffer":0,"byteOffset":25340,"byteLength":32},{"buffer":0,"byteOffset":25372,"byteLength":12},{"buffer":0,"byteOffset":25384,"byteLength":48},{"buffer":0,"byteOffset":25432,"byteLength":12},{"buffer":0,"byteOffset":25444,"byteLength":48},{"buffer":0,"byteOffset":25492,"byteLength":16},{"buffer":0,"byteOffset":25508,"byteLength":64}],"buffers":[{"byteLength":25572,"uri":"data:application/octet-stream;base64,"}],"accessors":[{"bufferView":0,"componentType":5126,"count":384,"max":[0.1984853595495224,2.125,0.4997999966144562],"min":[-1.1551483869552612,0.007408723700791597,-0.6777146458625793],"type":"VEC3"},{"bufferView":1,"componentType":5126,"count":384,"max":[0.9990482330322266,1,1],"min":[-0.9990482330322266,-1,-1],"type":"VEC3"},{"bufferView":2,"componentType":5126,"count":384,"max":[1,1],"min":[0,0],"type":"VEC2"},{"bufferView":3,"componentType":5123,"count":384,"max":[0,10,0,0],"min":[0,0,0,0],"type":"VEC4"},{"bufferView":4,"componentType":5126,"count":384,"max":[0,1,0,0],"min":[0,1,0,0],"type":"VEC4"},{"bufferView":5,"componentType":5123,"count":576,"max":[383],"min":[0],"type":"SCALAR"},{"bufferView":6,"componentType":5126,"count":11,"max":[0.17336992919445038,0.11488737165927887,0.9990482330322266,0,0.9819430112838745,1,0.0080702630802989,0,0.9990482330322266,0.6081820130348206,0.17514216899871826,0,0.7164263725280762,0,0.31960931420326233,1],"min":[-0.30657100677490234,-0.07441174238920212,-0.9996585249900818,0,-0.6087614297866821,0.18737918138504028,-0.06850853562355042,0,-0.9990482330322266,-0.9822844862937927,-0.3079439401626587,0,-0.7118956446647644,-1.625,-0.46706119179725647,1],"type":"MAT4"},{"bufferView":7,"componentType":5126,"count":4,"max":[1.2083333730697632],"min":[0],"type":"SCALAR"},{"bufferView":8,"componentType":5126,"count":4,"max":[0,-0.5187732577323914,0,0.8549118638038635],"min":[0,-0.8549118638038635,0,0.5187732577323914],"type":"VEC4"},{"bufferView":9,"componentType":5126,"count":6,"max":[1.2083333730697632],"min":[0],"type":"SCALAR"},{"bufferView":10,"componentType":5126,"count":6,"max":[0.16580235958099365,0.048579175025224686,-0.19280467927455902,0.9564476609230042],"min":[-0.005404121708124876,-0.20638181269168854,-0.6275509595870972,0.7478861212730408],"type":"VEC4"},{"bufferView":11,"componentType":5126,"count":6,"max":[1.2083333730697632],"min":[0],"type":"SCALAR"},{"bufferView":12,"componentType":5126,"count":6,"max":[0,0,0.6087614297866821,0.9883615374565125],"min":[0,0,0.15212339162826538,0.7933533191680908],"type":"VEC4"},{"bufferView":13,"componentType":5126,"count":1,"max":[0],"min":[0],"type":"SCALAR"},{"bufferView":14,"componentType":5126,"count":1,"max":[0,0,-0.3214394748210907,0.9469301104545593],"min":[0,0,-0.3214394748210907,0.9469301104545593],"type":"VEC4"},{"bufferView":15,"componentType":5126,"count":6,"max":[1.2083333730697632],"min":[0],"type":"SCALAR"},{"bufferView":16,"componentType":5126,"count":6,"max":[0.47080737352371216,0.9736183881759644,0.21046790480613708,0.7655104398727417],"min":[-0.24951902031898499,0.3155459463596344,-0.8580508232116699,-0.223027765750885],"type":"VEC4"},{"bufferView":17,"componentType":5126,"count":3,"max":[0.625],"min":[0],"type":"SCALAR"},{"bufferView":18,"componentType":5126,"count":3,"max":[0,0,0.30070579051971436,1],"min":[0,0,0,0.9537169337272644],"type":"VEC4"},{"bufferView":19,"componentType":5126,"count":14,"max":[1.4583333730697632],"min":[0],"type":"SCALAR"},{"bufferView":20,"componentType":5126,"count":14,"max":[0.09428741782903671,-0.6834648847579956,0.1143643856048584,0.7279931306838989],"min":[-0.10988844931125641,-0.7051618695259094,-0.09817706048488617,0.7039492130279541],"type":"VEC4"},{"bufferView":21,"componentType":5126,"count":8,"max":[1.4583333730697632],"min":[0],"type":"SCALAR"},{"bufferView":22,"componentType":5126,"count":8,"max":[0,0,-0.2164396196603775,0.9762960076332092],"min":[0,0,-0.6755902171134949,0.7372773289680481],"type":"VEC4"},{"bufferView":23,"componentType":5126,"count":3,"max":[0.375],"min":[0],"type":"SCALAR"},{"bufferView":24,"componentType":5126,"count":3,"max":[0,0,0.6427876353263855,0.9537169337272644],"min":[0,0,0.30070579051971436,0.7660444378852844],"type":"VEC4"},{"bufferView":25,"componentType":5126,"count":8,"max":[1.4583333730697632],"min":[0],"type":"SCALAR"},{"bufferView":26,"componentType":5126,"count":8,"max":[0,0,-0.08715574443340302,0.9961947202682495],"min":[0,0,-0.751839816570282,0.659345805644989],"type":"VEC4"},{"bufferView":27,"componentType":5126,"count":5,"max":[1.4583333730697632],"min":[0.5],"type":"SCALAR"},{"bufferView":28,"componentType":5126,"count":5,"max":[0,0,0.5555702447891235,0.9600498676300049],"min":[0,0,0.2798290252685547,0.8314695954322815],"type":"VEC4"},{"bufferView":29,"componentType":5126,"count":7,"max":[1.125],"min":[0],"type":"SCALAR"},{"bufferView":30,"componentType":5126,"count":7,"max":[0.14092621207237244,-0.6782258152961731,0.1464867889881134,0.7319303750991821],"min":[-0.14092621207237244,-0.7030142545700073,-0.1464867889881134,0.7061806917190552],"type":"VEC4"},{"bufferView":31,"componentType":5126,"count":5,"max":[1.125],"min":[0],"type":"SCALAR"},{"bufferView":32,"componentType":5126,"count":5,"max":[0,0,0.15212339162826538,0.9978589415550232],"min":[0,0,-0.5,0.8660253882408142],"type":"VEC4"},{"bufferView":33,"componentType":5126,"count":6,"max":[1.0833333730697632],"min":[0],"type":"SCALAR"},{"bufferView":34,"componentType":5126,"count":6,"max":[0.6497052311897278,0.9671441912651062,0.2231980264186859,0.38807961344718933],"min":[-0.23292630910873413,0.6536121964454651,-0.0077837794087827206,0.10181788355112076],"type":"VEC4"},{"bufferView":35,"componentType":5126,"count":2,"max":[1.125],"min":[0.9166666865348816],"type":"SCALAR"},{"bufferView":36,"componentType":5126,"count":2,"max":[0,0,0.4617486000061035,0.9537169337272644],"min":[0,0,0.30070579051971436,0.8870108127593994],"type":"VEC4"},{"bufferView":37,"componentType":5126,"count":3,"max":[0.6666666865348816],"min":[0],"type":"SCALAR"},{"bufferView":38,"componentType":5126,"count":3,"max":[-0.6730194091796875,0.6568368077278137,0.2732163667678833,0.2185768038034439],"min":[-0.748978853225708,-0.7344717979431152,-0.06295816600322723,0.06026933342218399],"type":"VEC4"},{"bufferView":39,"componentType":5126,"count":2,"max":[0.5],"min":[0],"type":"SCALAR"},{"bufferView":40,"componentType":5126,"count":2,"max":[0.007365833502262831,-0.4676745533943176,0],"min":[-0.11763416975736618,-0.4676745533943176,-0.0625],"type":"VEC3"},{"bufferView":41,"componentType":5126,"count":5,"max":[1.125],"min":[0],"type":"SCALAR"},{"bufferView":42,"componentType":5126,"count":5,"max":[0.223597913980484,-0.7616279721260071,0.16933125257492065,0.22092582285404205],"min":[-0.6100074052810669,-0.9647465348243713,0.0033436468802392483,0.13836027681827545],"type":"VEC4"},{"bufferView":43,"componentType":5126,"count":2,"max":[0.875],"min":[0.5833333134651184],"type":"SCALAR"},{"bufferView":44,"componentType":5126,"count":2,"max":[0,0,0.5187732577323914,0.9537169337272644],"min":[0,0,0.30070579051971436,0.8549118638038635],"type":"VEC4"},{"bufferView":45,"componentType":5126,"count":3,"max":[0.8333333134651184],"min":[0],"type":"SCALAR"},{"bufferView":46,"componentType":5126,"count":3,"max":[0.15634818375110626,-0.6751214265823364,0.06429235637187958,0.7223639488220215],"min":[-0.0013444168725982308,-0.6915717720985413,-0.16239991784095764,0.702419102191925],"type":"VEC4"},{"bufferView":47,"componentType":5126,"count":2,"max":[0.2083333283662796],"min":[0],"type":"SCALAR"},{"bufferView":48,"componentType":5126,"count":2,"max":[0,0,-0.08715574443340302,0.9961947202682495],"min":[0,0,-0.3214394748210907,0.9469301104545593],"type":"VEC4"},{"bufferView":49,"componentType":5126,"count":3,"max":[0.7083333134651184],"min":[0.25],"type":"SCALAR"},{"bufferView":50,"componentType":5126,"count":3,"max":[0,0,0.04361938685178757,0.9990482330322266],"min":[0,0,-0.4226182699203491,0.9063078165054321],"type":"VEC4"},{"bufferView":51,"componentType":5126,"count":3,"max":[0.5],"min":[0],"type":"SCALAR"},{"bufferView":52,"componentType":5126,"count":3,"max":[0.8308709263801575,0.9621366858482361,-0.02358899638056755,0.10712999105453491],"min":[-0.24951902031898499,0.545545756816864,-0.10902705043554306,0.012098675593733788],"type":"VEC4"},{"bufferView":53,"componentType":5126,"count":4,"max":[0.7083333134651184],"min":[0],"type":"SCALAR"},{"bufferView":54,"componentType":5126,"count":4,"max":[0,0,0.8433914184570312,0.9961947202682495],"min":[0,0,-0.08715574443340302,0.537299633026123],"type":"VEC4"}],"materials":[{"pbrMetallicRoughness":{"metallicFactor":0,"roughnessFactor":1,"baseColorTexture":{"index":0}},"alphaMode":"MASK","alphaCutoff":0.05,"doubleSided":true}],"textures":[{"sampler":0,"source":0,"name":"texture.png"}],"samplers":[{"magFilter":9728,"minFilter":9728,"wrapS":33071,"wrapT":33071}],"images":[{"mimeType":"image/png","uri":"data:image/png;base64,"}],"meshes":[{"primitives":[{"mode":4,"attributes":{"POSITION":0,"NORMAL":1,"TEXCOORD_0":2,"JOINTS_0":3,"WEIGHTS_0":4},"indices":5,"material":0}]}],"skins":[{"inverseBindMatrices":6,"joints":[10,0,2,1,4,3,7,6,5,9,8],"skeleton":10}],"animations":[{"name":"animation.skeletonboss.attack","samplers":[{"input":7,"output":8,"interpolation":"LINEAR"},{"input":9,"output":10,"interpolation":"LINEAR"},{"input":11,"output":12,"interpolation":"LINEAR"},{"input":13,"output":14,"interpolation":"LINEAR"},{"input":15,"output":16,"interpolation":"LINEAR"},{"input":17,"output":18,"interpolation":"LINEAR"}],"channels":[{"sampler":0,"target":{"node":10,"path":"rotation"}},{"sampler":1,"target":{"node":2,"path":"rotation"}},{"sampler":2,"target":{"node":1,"path":"rotation"}},{"sampler":3,"target":{"node":4,"path":"rotation"}},{"sampler":4,"target":{"node":7,"path":"rotation"}},{"sampler":5,"target":{"node":6,"path":"rotation"}}]},{"name":"animation.skeletonboss.walk","samplers":[{"input":19,"output":20,"interpolation":"LINEAR"},{"input":21,"output":22,"interpolation":"LINEAR"},{"input":23,"output":24,"interpolation":"LINEAR"},{"input":25,"output":26,"interpolation":"LINEAR"},{"input":27,"output":28,"interpolation":"LINEAR"}],"channels":[{"sampler":0,"target":{"node":10,"path":"rotation"}},{"sampler":1,"target":{"node":2,"path":"rotation"}},{"sampler":2,"target":{"node":1,"path":"rotation"}},{"sampler":3,"target":{"node":4,"path":"rotation"}},{"sampler":4,"target":{"node":3,"path":"rotation"}}]},{"name":"animation.skeletonboss.summon","samplers":[{"input":29,"output":30,"interpolation":"LINEAR"},{"input":31,"output":32,"interpolation":"LINEAR"},{"input":33,"output":34,"interpolation":"LINEAR"},{"input":35,"output":36,"interpolation":"LINEAR"},{"input":37,"output":38,"interpolation":"LINEAR"},{"input":39,"output":40,"interpolation":"LINEAR"},{"input":41,"output":42,"interpolation":"LINEAR"},{"input":43,"output":44,"interpolation":"LINEAR"}],"channels":[{"sampler":0,"target":{"node":10,"path":"rotation"}},{"sampler":1,"target":{"node":4,"path":"rotation"}},{"sampler":2,"target":{"node":7,"path":"rotation"}},{"sampler":3,"target":{"node":6,"path":"rotation"}},{"sampler":4,"target":{"node":5,"path":"rotation"}},{"sampler":5,"target":{"node":5,"path":"translation"}},{"sampler":6,"target":{"node":9,"path":"rotation"}},{"sampler":7,"target":{"node":8,"path":"rotation"}}]},{"name":"animation.skeletonboss.fireballrain","samplers":[{"input":45,"output":46,"interpolation":"LINEAR"},{"input":47,"output":48,"interpolation":"LINEAR"},{"input":49,"output":50,"interpolation":"LINEAR"},{"input":51,"output":52,"interpolation":"LINEAR"},{"input":53,"output":54,"interpolation":"LINEAR"}],"channels":[{"sampler":0,"target":{"node":10,"path":"rotation"}},{"sampler":1,"target":{"node":2,"path":"rotation"}},{"sampler":2,"target":{"node":4,"path":"rotation"}},{"sampler":3,"target":{"node":7,"path":"rotation"}},{"sampler":4,"target":{"node":6,"path":"rotation"}}]}]}